<svg width="172" height="114" viewBox="0 0 172 114" fill="none" xmlns="http://www.w3.org/2000/svg">
<circle cx="2.57143" cy="2.57143" r="2.57143" fill="#F3F3F3"/>
<circle cx="2.57143" cy="103.143" r="2.57143" fill="#F3F3F3"/>
<circle cx="2.57143" cy="52.8571" r="2.57143" fill="#F3F3F3"/>
<circle cx="2.57143" cy="27.7143" r="2.57143" fill="#F3F3F3"/>
<circle cx="2.57143" cy="77.9999" r="2.57143" fill="#F3F3F3"/>
<circle cx="93.4285" cy="2.57143" r="2.57143" fill="#F3F3F3"/>
<circle cx="93.4285" cy="103.143" r="2.57143" fill="#F3F3F3"/>
<circle cx="93.4285" cy="52.8571" r="2.57143" fill="#F3F3F3"/>
<circle cx="93.4285" cy="27.7143" r="2.57143" fill="#F3F3F3"/>
<circle cx="93.4285" cy="77.9999" r="2.57143" fill="#F3F3F3"/>
<circle cx="48" cy="2.57143" r="2.57143" fill="#F3F3F3"/>
<circle cx="48" cy="103.143" r="2.57143" fill="#F3F3F3"/>
<circle cx="48" cy="52.8571" r="2.57143" fill="#F3F3F3"/>
<circle cx="48" cy="27.7143" r="2.57143" fill="#F3F3F3"/>
<circle cx="48" cy="77.9999" r="2.57143" fill="#F3F3F3"/>
<circle cx="138.857" cy="2.57143" r="2.57143" fill="#F3F3F3"/>
<circle cx="138.857" cy="103.143" r="2.57143" fill="#F3F3F3"/>
<circle cx="138.857" cy="52.8571" r="2.57143" fill="#F3F3F3"/>
<circle cx="138.857" cy="27.7143" r="2.57143" fill="#F3F3F3"/>
<circle cx="138.857" cy="77.9999" r="2.57143" fill="#F3F3F3"/>
<circle cx="17.7143" cy="2.57143" r="2.57143" fill="#F3F3F3"/>
<circle cx="17.7143" cy="103.143" r="2.57143" fill="#F3F3F3"/>
<circle cx="17.7143" cy="52.8571" r="2.57143" fill="#F3F3F3"/>
<circle cx="17.7143" cy="27.7143" r="2.57143" fill="#F3F3F3"/>
<circle cx="17.7143" cy="77.9999" r="2.57143" fill="#F3F3F3"/>
<circle cx="108.571" cy="2.57143" r="2.57143" fill="#F3F3F3"/>
<circle cx="108.571" cy="103.143" r="2.57143" fill="#F3F3F3"/>
<circle cx="108.571" cy="52.8571" r="2.57143" fill="#F3F3F3"/>
<circle cx="108.571" cy="27.7143" r="2.57143" fill="#F3F3F3"/>
<circle cx="108.571" cy="77.9999" r="2.57143" fill="#F3F3F3"/>
<circle cx="63.1428" cy="2.57143" r="2.57143" fill="#F3F3F3"/>
<circle cx="63.1428" cy="103.143" r="2.57143" fill="#F3F3F3"/>
<circle cx="63.1428" cy="52.8571" r="2.57143" fill="#F3F3F3"/>
<circle cx="63.1428" cy="27.7143" r="2.57143" fill="#F3F3F3"/>
<circle cx="63.1428" cy="77.9999" r="2.57143" fill="#F3F3F3"/>
<circle cx="154" cy="2.57143" r="2.57143" fill="#F3F3F3"/>
<circle cx="154" cy="103.143" r="2.57143" fill="#F3F3F3"/>
<circle cx="154" cy="52.8571" r="2.57143" fill="#F3F3F3"/>
<circle cx="154" cy="27.7143" r="2.57143" fill="#F3F3F3"/>
<circle cx="154" cy="77.9999" r="2.57143" fill="#F3F3F3"/>
<circle cx="32.8571" cy="2.57143" r="2.57143" fill="#F3F3F3"/>
<circle cx="32.8571" cy="103.143" r="2.57143" fill="#F3F3F3"/>
<circle cx="32.8571" cy="52.8571" r="2.57143" fill="#F3F3F3"/>
<circle cx="32.8571" cy="27.7143" r="2.57143" fill="#F3F3F3"/>
<circle cx="32.8571" cy="77.9999" r="2.57143" fill="#F3F3F3"/>
<circle cx="123.714" cy="2.57143" r="2.57143" fill="#F3F3F3"/>
<circle cx="123.714" cy="103.143" r="2.57143" fill="#F3F3F3"/>
<circle cx="123.714" cy="52.8571" r="2.57143" fill="#F3F3F3"/>
<circle cx="123.714" cy="27.7143" r="2.57143" fill="#F3F3F3"/>
<circle cx="123.714" cy="77.9999" r="2.57143" fill="#F3F3F3"/>
<circle cx="78.2857" cy="2.57143" r="2.57143" fill="#F3F3F3"/>
<circle cx="78.2857" cy="103.143" r="2.57143" fill="#F3F3F3"/>
<circle cx="78.2857" cy="52.8571" r="2.57143" fill="#F3F3F3"/>
<circle cx="78.2857" cy="27.7143" r="2.57143" fill="#F3F3F3"/>
<circle cx="78.2857" cy="77.9999" r="2.57143" fill="#F3F3F3"/>
<circle cx="169.143" cy="2.57143" r="2.57143" fill="#F3F3F3"/>
<circle cx="169.143" cy="103.143" r="2.57143" fill="#F3F3F3"/>
<circle cx="169.143" cy="52.8571" r="2.57143" fill="#F3F3F3"/>
<circle cx="169.143" cy="27.7143" r="2.57143" fill="#F3F3F3"/>
<circle cx="169.143" cy="77.9999" r="2.57143" fill="#F3F3F3"/>
</svg>
